<?xml version="1.0" encoding="utf-8"?>
<!-- Generator: Adobe Illustrator 26.0.3, SVG Export Plug-In . SVG Version: 6.00 Build 0)  -->
<svg version="1.0" id="Layer_1" xmlns="http://www.w3.org/2000/svg" xmlns:xlink="http://www.w3.org/1999/xlink" x="0px" y="0px"
	 viewBox="0 0 882.7 627.7" style="enable-background:new 0 0 882.7 627.7; fill:white" xml:space="preserve">
<style type="text/css">
	.st0{fill:#fff;}
</style>
<g id="layer1">
	<g id="g58">
		<g id="g60">
			<path id="path62" d="M90.8,349h17.6c13.6,0,20.3-4.5,20.3-13.1c0-8.5-7.2-13.1-21.4-13.1H90.8V349z M90.8,285.9v24.3h15.4
				c11.6,0,17.6-4.3,17.6-12.2s-6.2-12.2-17.7-12.2L90.8,285.9z M66.3,362.1V349h10.3v-63.2H66.3v-13h41.3c18.9,0,30.5,8.8,30.5,24
				c0,10-5.8,16.2-13.2,19.1c10.6,2.9,18.2,10.5,18.2,20.8c0,16.3-12.6,25.4-33.3,25.4L66.3,362.1"/>
			<path id="path64" d="M217.9,315.6c-1.5-5.2-5.4-8.3-10.5-8.3c-11.9,0-23.1,8.8-23.1,24.8v17h22.8v13.1h-50.8V349h14.5v-39.4
				h-11.5v-13.1h24.8v11.1c4.2-7.7,12.6-13.2,23.9-13.2c12.6,0,20.5,7.2,22.8,17.5L217.9,315.6"/>
			<path id="path66" d="M287.2,335.6c-5.4-1.8-11.1-2.8-16.8-2.8c-8.6,0-17,2.8-17,10.6c0,5.9,5.2,8.6,12.5,8.6
				c10,0,21.3-5.4,21.3-14.6V335.6z M287.2,323.9v-3.7c0-9.2-7.4-13.1-15.4-13.1c-7.2,0.1-14.1,2.9-19.2,7.9l-8.9-9.7
				c7.6-7.2,17.7-11.1,28.2-10.9c16.5,0,29.3,8.8,29.3,25.4V349h9.5v13.1h-23.4v-6.9c-3.5,5.7-13.1,9.1-22.5,9.1
				c-13.6,0-25.3-6.9-25.3-20.6c0-16.2,15.9-22.3,30.3-22.3C275.7,321.4,281.6,322.3,287.2,323.9"/>
			<path id="path68" d="M367.6,283.4h-15.3v-20h15.2L367.6,283.4z M392.9,349v13.1h-66.2V349h27.4v-39.4h-21v-13.1h34.5V349
				L392.9,349"/>
			<path id="path70" d="M409.2,349h10v-39.4h-9.4v-13.1h22.8v8.5c4-6.5,12.3-10.6,22.5-10.6c14.6,0,25.1,9.2,25.1,24.2V349h10v13.1
				h-34V349h10.5v-26.8c0-11.4-6.9-14.6-13.2-14.6c-10.3,0-20.6,7.7-20.6,19.6V349h10.5v13.1h-34L409.2,349"/>
			<path id="path72" d="M508.9,309.6h-17.1v-13.1h17.1v-23.7h13.6v23.7h31.9v13.1h-31.9v27.6c0,10.2,7.1,14.3,15.2,14.3
				c7.7,0,14.2-4.3,19-9.1l9.1,9.4c-7.1,7.9-17.3,12.5-28,12.5c-16.5,0-28.8-9.1-28.8-26.6L508.9,309.6"/>
			<path id="path74" d="M639.7,315.6c-1.5-5.2-5.4-8.3-10.5-8.3c-11.9,0-23.1,8.8-23.1,24.8v17h22.8v13.1H578V349h14.5v-39.4h-11.4
				v-13.1h24.8v11.1c4.2-7.7,12.6-13.2,23.9-13.2c12.6,0,20.5,7.2,22.8,17.5L639.7,315.6"/>
			<path id="path76" d="M676.2,322.5h40.3c-2-9.2-10.2-15.7-19.6-15.7C686.5,306.8,678.5,313.3,676.2,322.5L676.2,322.5z
				 M730.8,352.1c-6.8,7.1-18.8,12.2-32.2,12.2c-22,0-37.4-14.8-37.4-35s14.9-35,35.7-35s35.1,15.9,35.1,37.4v2.3h-56.5
				c2.3,10.9,11.4,17.6,23.3,17.6c9.9,0,18.3-4,23-9.1L730.8,352.1"/>
			<path id="path78" d="M760.4,322.5h40.3c-2-9.2-10.2-15.7-19.6-15.7C770.7,306.8,762.7,313.3,760.4,322.5z M815.1,352.1
				c-6.8,7.1-18.8,12.2-32.2,12.2c-22,0-37.4-14.8-37.4-35s14.9-35,35.7-35s35.1,15.9,35.1,37.5v2.3h-56.5
				c2.3,10.9,11.4,17.6,23.3,17.6c9.9,0,18.3-4,23-9.1L815.1,352.1"/>
		</g>
	</g>
</g>
</svg>
